<svg width="240" height="109" viewBox="0 0 240 109" fill="none" xmlns="http://www.w3.org/2000/svg">
<defs>
<mask id="letter-square-cutouts" maskUnits="userSpaceOnUse">
<rect width="240" height="109" fill="white"/>
<path d="M16.3363 24.4031L27.5195 22.8105V39.1707L16.3363 40.5347V24.4031Z" fill="black"/>
<path d="M179.622 31.1012L191.371 29.9658L191.83 45.8154L179.622 47.0041V31.1012Z" fill="black"/>
</mask>
</defs>
<g mask="url(#letter-square-cutouts)">
<path d="M0.590996 14.1773L43.9536 9.63574V40.5348C43.9536 40.5348 43.9536 48.7111 32.7704 50.9818C21.5872 53.2526 8.5823 54.1594 8.5823 54.1594C8.5823 54.1594 0.820638 56.4301 0.598658 50.9818C0.376678 45.5335 0.598658 14.1773 0.598658 14.1773H0.590996Z" fill="white" stroke="black" stroke-miterlimit="10"/>
<path d="M16.3363 24.4031L27.5195 22.8105V39.1707L16.3363 40.5347V24.4031Z" stroke="black" stroke-miterlimit="10"/>
<path d="M50.7969 7.59355L66.5422 6.00098V19.8617L77.2737 18.4978V32.1376H65.6313L66.0906 48.7111L50.7969 50.9818V7.59355Z" fill="white" stroke="black" stroke-miterlimit="10"/>
<path d="M33.0004 54.6318L48.9753 52.1172C48.9753 52.1172 47.8347 61.886 59.0179 65.7493L30.949 62.5718L33.0004 54.6318Z" fill="white" stroke="black" stroke-miterlimit="10"/>
<path d="M33.6814 64.8428L53.0778 67.5707C53.0778 67.5707 62.6612 75.747 74.0741 79.1531L78.6361 84.3805C78.6361 84.3805 74.0741 91.8785 59.0101 86.2016C59.0101 86.2016 45.5458 78.6959 44.9717 75.9756C44.9717 75.9756 38.0138 86.8874 12.9071 94.8351L7.88574 86.8874C7.88574 86.8874 37.0952 76.89 33.6737 64.8504L33.6814 64.8428Z" fill="white" stroke="black" stroke-miterlimit="10"/>
<path d="M60.1504 68.4775L81.8355 83.4661V73.019L60.1504 68.4775Z" fill="white" stroke="black" stroke-miterlimit="10"/>
<path d="M83.543 28.495L101.462 26.7881L125.535 41.8985V62.5716L111.275 64.8423L110.135 38.2638L84.2318 42.2338L83.543 28.495Z" fill="white" stroke="black" stroke-miterlimit="10"/>
<path d="M71.6785 0.887695L106.935 7.1361L105.343 24.403L71.6785 0.887695Z" fill="white" stroke="black" stroke-miterlimit="10"/>
<path d="M106.935 24.7455L129.646 22.0176V39.0559L106.935 24.7455Z" fill="white" stroke="black" stroke-miterlimit="10"/>
<path d="M137.4 20.6541L153.949 19.0615V42.9197H160.455L161.021 56.5519H155.885L137.4 44.9619L136.833 20.6541" fill="white"/>
<path d="M137.4 20.6541L153.949 19.0615V42.9197H160.455L161.021 56.5519H155.885L137.4 44.9619L136.833 20.6541" stroke="black" stroke-miterlimit="10"/>
<path d="M88.1124 50.9812L102.143 49.3887L101.691 71.4257L88.6789 69.8407L88.1124 50.9812Z" fill="white" stroke="black" stroke-miterlimit="10"/>
<path d="M108.075 68.4771L129.646 65.4062V76.7676L108.075 73.4758V68.0199" fill="white"/>
<path d="M108.075 68.4771L129.646 65.4062V76.7676L108.075 73.4758V68.0199" stroke="black" stroke-miterlimit="10"/>
<path d="M129.646 44.3975L154.178 58.9364L146.302 60.4071L146.531 78.8094L130.786 76.7672L129.646 44.3975Z" fill="white" stroke="black" stroke-miterlimit="10"/>
<path d="M96.2105 74.7256L111.841 76.7677V86.308L133.297 81.3093L133.978 93.8061L104.539 101.304L87.4232 90.7428L95.1236 89.3788L96.2105 74.7256Z" fill="white" stroke="black" stroke-miterlimit="10"/>
<path d="M73.7296 92.2129L83.5427 90.6279L99.5176 101.982L73.7296 107.887V92.8987" fill="white"/>
<path d="M73.7296 92.2129L83.5427 90.6279L99.5176 101.982L73.7296 107.887V92.8987" stroke="black" stroke-miterlimit="10"/>
<path d="M139.459 81.7666V98.8049L154.178 96.6485L155.089 84.4946L139.459 81.7666Z" fill="white" stroke="black" stroke-miterlimit="10"/>
<path d="M163.876 20.5402L206.55 17.0198V30.5376L214.197 29.6308V15.9987L230.738 14.8633L231.419 58.9373L214.419 60.9795L214.304 41.5561L206.657 42.1276C206.657 42.1276 206.772 55.3026 194.908 57.802C183.043 60.3013 163.869 62.3435 163.869 62.3435V20.5402H163.876Z" fill="white" stroke="black" stroke-miterlimit="10"/>
<path d="M179.622 31.1012L191.371 29.9658L191.83 45.8154L179.622 47.0041V31.1012Z" stroke="black" stroke-miterlimit="10"/>
<path d="M194.341 62.3433L209.635 59.3867C209.635 59.3867 213.631 77.789 238.5 78.8101L235.078 89.2571C235.078 89.2571 209.635 86.9864 203.243 76.7603C203.243 76.7603 198.222 83.2373 191.035 86.5291L163.876 81.759C163.876 81.759 187.498 82.5515 194.341 62.3357V62.3433Z" fill="white" stroke="black" stroke-miterlimit="10"/>
<path d="M165.583 86.1934L171.064 96.5337L187.72 90.2853L165.583 86.1934Z" fill="white" stroke="black" stroke-miterlimit="10"/>
</g>
<path d="M16.3363 24.4031L27.5195 22.8105V39.1707L16.3363 40.5347V24.4031Z" stroke="black" stroke-miterlimit="10"/>
<path d="M179.622 31.1012L191.371 29.9658L191.83 45.8154L179.622 47.0041V31.1012Z" stroke="black" stroke-miterlimit="10"/>
</svg>
